<?xml version="1.0" encoding="UTF-8"?>
<svg width="640" height="480" viewBox="0 0 640 480" xmlns="http://www.w3.org/2000/svg">
    <rect width="640" height="480" fill="#012169"/>
    <path d="M75 0l244 181L562 0h78L400 196l240 284h-80L320 240 81 480H0l242-284L0 0h75z" fill="#FFF"/>
    <path d="M424 281l216 199v-31L451 281h-27zm-184 20l6 35L54 480H0l240-179zM640 0v3L391 191l2-44L590 0h50zM0 0l239 176h-60L0 42V0z" fill="#C8102E"/>
    <path d="M241 0v480h160V0H241zM0 160v160h640V160H0z" fill="#FFF"/>
    <path d="M0 193v96h640v-96H0zM273 0v480h96V0h-96z" fill="#C8102E"/>
</svg>